<svg xmlns="http://www.w3.org/2000/svg" viewBox="0 0 24 24" id="calculator">
  <g>
    <g>
      <path fill="none" d="M0 0h24v24H0z"></path>
      <path fill="#009c00" d="M1 12C1 4 4 1 12 1s11 3 11 11-3 11-11 11S1 20 1 12"></path>
      <rect width="1.2" height="5.76" x="15.24" y="5.4" fill="#fff" rx=".6" transform="rotate(-90 15.84 8.28)"></rect>
      <rect width="1.2" height="5.76" x="7.56" y="5.4" fill="#fff" rx=".6" transform="rotate(-90 8.16 8.28)"></rect>
      <rect width="1.2" height="5.76" x="7.56" y="5.4" fill="#fff" rx=".6"></rect>
      <rect width="1.2" height="5.76" x="15.24" y="12.84" fill="#fff" rx=".6" transform="rotate(-90 15.84 15.72)"></rect>
      <rect width="1.2" height="1.2" x="15.24" y="12.84" fill="#fff" rx=".6"></rect>
      <rect width="1.2" height="1.2" x="15.24" y="17.4" fill="#fff" rx=".6"></rect>
      <rect width="1.21" height="6.29" x="7.56" y="12.58" fill="#fff" rx=".6" transform="rotate(-135 8.159 15.723)"></rect>
      <rect width="1.21" height="6.29" x="7.56" y="12.58" fill="#fff" rx=".6" transform="rotate(-45 8.153 15.723)"></rect>
    </g>
  </g>
</svg>
